# xmcd
#
# Track frame offsets: 
#        150
#        20321
#        39051
#        51459
#        66805
#        85544
#        97243
#        123336
#        138263
#        153916
#        168188
#        180661
#        195394
#        207227
#        224347
#        246234
#        262776
#        284601
#        301851
#        319403
#
# Disc length: 4480 seconds
#
# Revision: 3
# Processed by: cddbd v1.5.2PL0 Copyright (c) Steve Scherf et al.
# Submitted via: ExactAudioCopy v0.99pb4
#
DISCID=13117e14
DTITLE=Billy Preston - Ultimate Collection
DYEAR=2000
DGENRE=Soul
TTITLE0=Will It Go Round In Circles
TTITLE1=Outa-Space
TTITLE2=Slaughter (From The Movie "Slaughter")
TTITLE3=I Wrote A Simple Song
TTITLE4=That's The Way God Planned It (Live)
TTITLE5=Struttin'
TTITLE6=Fancy Lady
TTITLE7=You're So Unique
TTITLE8=Space Race
TTITLE9=Get Back (From The Movie "Sgt. Pepper's Lonely Hearts Club Ban
TTITLE9=d")
TTITLE10=Blackbird
TTITLE11=Wide Stride
TTITLE12=Nothing From Nothing
TTITLE13=I'm Really Gonna Miss You
TTITLE14=You Are So Beautiful
TTITLE15=With You I'm Born Again (With Syreeta) (From The Movie "Fast 
TTITLE15=Break")
TTITLE16=Since I Held You Close
TTITLE17=Go For It (With Syreeta) (From The Movie "Fast Break")
TTITLE18=One More Time For Love (With Syreeta)
TTITLE19=I'm Never Gonna Say Goodbye
EXTD=
EXTT0=
EXTT1=
EXTT2=
EXTT3=
EXTT4=
EXTT5=
EXTT6=
EXTT7=
EXTT8=
EXTT9=
EXTT10=
EXTT11=
EXTT12=
EXTT13=
EXTT14=
EXTT15=
EXTT16=
EXTT17=
EXTT18=
EXTT19=
PLAYORDER=
